<svg xmlns="http://www.w3.org/2000/svg" width="142" height="125">
    <path fill="#FFF" fill-rule="evenodd" d="M140.833 102.656l-11.482 19.852a4.998 4.998 0 0 1-6.819 1.824l-3.822-2.202c-.879.458-2.733 1.215-5.394 1.215-2.468 0-5.63-.651-9.351-2.796l-3.971-2.301c-3.211-1.85-4.471-5.009-5.391-7.315-.339-.848-.802-2.009-1.105-2.183l-12.537-7.226a5.483 5.483 0 0 1-2.01-7.488 5.468 5.468 0 0 1 3.282-2.537c-.028-.034-.048-.072-.074-.106-.064-.081-.118-.167-.177-.251a5.446 5.446 0 0 1-.749-1.539c-.023-.076-.054-.15-.074-.227a5.45 5.45 0 0 1-.157-.935c-.006-.075-.001-.15-.004-.225a4.856 4.856 0 0 1 .062-1.057c.036-.228.088-.453.153-.678.029-.098.053-.195.087-.291.11-.312.242-.62.414-.918v-.001c.179-.309.387-.589.612-.848.074-.085.157-.155.235-.234.162-.165.326-.324.505-.466.101-.079.207-.147.313-.218a5.017 5.017 0 0 1 .887-.494 5.53 5.53 0 0 1 .572-.213c.124-.039.247-.076.373-.106a5.66 5.66 0 0 1 .623-.104c.121-.014.239-.034.361-.04.068-.004.135-.005.203-.005.171 0 .342.01.513.023.095.008.19.004.284.017.329.043.656.111.977.216-.025-.127-.026-.258-.042-.387-.018-.141-.039-.28-.046-.423-.01-.204.002-.408.016-.613.008-.134.008-.268.027-.402.032-.226.091-.448.152-.671.03-.112.047-.225.085-.335.113-.33.255-.653.435-.966l.002-.005c.187-.323.404-.619.642-.889.077-.087.169-.153.25-.234.172-.171.342-.345.532-.49.108-.082.228-.141.34-.214.182-.118.36-.242.552-.337.128-.063.264-.102.396-.155.191-.077.379-.16.577-.215.142-.039.288-.054.432-.082.197-.038.392-.083.593-.099.05-.004.101-.006.151-.006.099 0 .199.006.299.006h.001l.221-.001c.125 0 .249.002.375.016.153.017.303.058.455.088.196.038.391.071.584.131.153.048.299.12.448.182.153.063.31.107.459.185-.011-.062-.008-.125-.017-.188a5.624 5.624 0 0 1-.053-.594c-.004-.15.004-.298.012-.448.009-.174.017-.346.043-.519.029-.191.079-.378.128-.566.036-.134.06-.269.106-.402.112-.322.249-.637.424-.941l.002-.003c.177-.306.383-.586.61-.845.132-.152.282-.278.428-.413.097-.089.187-.186.29-.267.204-.163.423-.299.647-.431.053-.03.102-.066.156-.095a5.47 5.47 0 0 1 .797-.349l.076-.028c.291-.098.587-.168.89-.217l.04-.007a5.43 5.43 0 0 1 .934-.061l.036.001c.314.008.625.042.937.105l.049.011c.309.065.612.155.911.276l.017.005c.125.017.249.058.364.124l18.563 10.699c8.723 5.028 9.516 6.356 11.172 10.643.231.598.487 1.261.803 2.013l4.223 2.435c2.425 1.418 3.303 3.818 2.137 5.835zm-58.065-9.234a3.404 3.404 0 0 0-.658.26 3.43 3.43 0 0 0-.51.312l-.017.014a3.512 3.512 0 0 0-.535.514 3.505 3.505 0 0 0-.368.51 3.49 3.49 0 0 0 1.279 4.766l11.806 6.804a21.799 21.799 0 0 0-1.372-5.867c-.523-1.352-.636-2.428-.524-3.282l-6.42-3.699a3.533 3.533 0 0 0-.574-.258l-.142-.047a3.485 3.485 0 0 0-.59-.132l-.039-.003a3.667 3.667 0 0 0-.392-.025c-.057 0-.114.009-.171.011-.05.003-.099.005-.149.01a3.597 3.597 0 0 0-.584.098l-.04.014zm5.449-8.431a3.428 3.428 0 0 0-.716-.306 3.51 3.51 0 0 0-.592-.133c-.011-.002-.022-.001-.034-.002a3.34 3.34 0 0 0-.399-.026c-.057 0-.112.008-.169.011a3.486 3.486 0 0 0-.734.108l-.037.012a3.51 3.51 0 0 0-.661.261c-.177.091-.35.191-.51.312l-.018.015a3.503 3.503 0 0 0-.535.514 3.431 3.431 0 0 0-.368.51 3.49 3.49 0 0 0 1.279 4.766l1.729.996.002.002 6.172 3.557c.028-.035.067-.062.097-.097.132-.154.269-.291.404-.406.039-.032.078-.063.119-.094.258-.202.499-.339.665-.419.076-.036.163-.051.242-.084.191-.078.384-.152.593-.205.13-.033.264-.05.399-.073.126-.021.243-.056.375-.068.069-.007.139-.002.209-.006a6.269 6.269 0 0 1 1.094.034c.045.005.089.008.134.014a6.449 6.449 0 0 1 2.833 1.102c.035.024.068.05.102.075.219.162.421.337.607.525.05.049.101.097.149.148.208.229.399.469.551.729.124.212.27.451.428.708.45.733.978 1.594 1.375 2.458.388-.332.713-.898 1.193-1.701a3.488 3.488 0 0 0-1.279-4.765l-.864-.499-11.241-6.478-2.594-1.495zm7.087-6.274a3.543 3.543 0 0 0-.716-.305 3.44 3.44 0 0 0-.592-.134l-.034-.002a3.561 3.561 0 0 0-.399-.025c-.057 0-.112.008-.169.011a3.59 3.59 0 0 0-.734.107c-.012.003-.023.009-.035.012a3.498 3.498 0 0 0-.663.261c-.177.091-.35.192-.511.313l-.015.013a3.465 3.465 0 0 0-.537.516 3.38 3.38 0 0 0-.368.51 3.488 3.488 0 0 0 1.279 4.765l.002.002 11.238 6.477c.186.107.379.189.575.258a3.499 3.499 0 0 0 .733.181l.035.002c.133.015.266.026.398.026.057 0 .113-.009.169-.011.05-.003.1-.005.15-.01.197-.018.393-.047.584-.098l.035-.011a3.555 3.555 0 0 0 .662-.262c.178-.091.351-.191.512-.313l.015-.012a3.552 3.552 0 0 0 .537-.516c.135-.158.261-.325.369-.511a3.49 3.49 0 0 0-1.279-4.765l-.865-.498-6.917-3.987-3.459-1.994zm14.869-1.788l-6.917-3.987c-.068-.039-.141-.06-.21-.094-.019-.007-.039-.011-.057-.02a3.531 3.531 0 0 0-.654-.223c-.051-.012-.101-.024-.151-.034a3.485 3.485 0 0 0-.657-.071l-.021-.002c-.036 0-.072.008-.108.009a3.663 3.663 0 0 0-.406.033c-.062.01-.123.023-.184.035a3.626 3.626 0 0 0-.529.149 3.166 3.166 0 0 0-.338.147c-.051.025-.103.047-.153.075a3.48 3.48 0 0 0-.451.293c-.015.013-.029.029-.044.041-.149.12-.29.25-.418.395a3.494 3.494 0 0 0-.393.544l-.001.002a3.378 3.378 0 0 0-.258.574c-.028.077-.047.156-.069.235a3.48 3.48 0 0 0-.117.657c-.006.078-.005.156-.006.234a3.51 3.51 0 0 0 .89 2.354c.007.008.009.018.016.026.237.26.503.499.824.683l6.917 3.987c.186.107.38.189.575.258a3.499 3.499 0 0 0 .733.181c.012.002.024.001.036.002.132.016.265.026.398.026.056 0 .112-.008.168-.011.05-.003.1-.005.15-.01a3.52 3.52 0 0 0 .585-.098l.034-.011a3.446 3.446 0 0 0 .662-.262c.178-.091.351-.191.512-.312l.015-.013c.156-.118.298-.255.434-.4.035-.038.07-.076.104-.116a3.46 3.46 0 0 0 .368-.511 3.49 3.49 0 0 0-1.279-4.765zm27.519 21.615l-3.643-2.1-.998 1.727a1.013 1.013 0 0 1-.303.316.997.997 0 0 1-.295.144l-.01.004a1.013 1.013 0 0 1-.421.013.99.99 0 0 1-.335-.112.997.997 0 0 1-.366-1.362l1.253-2.165a76.263 76.263 0 0 1-.767-1.919c-1.447-3.744-1.835-4.75-10.307-9.633l-7.69-4.432c.212 1.22.038 2.513-.629 3.666-.834 1.442-2.233 2.339-3.757 2.622 1.044 1.666 1.18 3.828.129 5.645-.83 1.435-2.22 2.33-3.735 2.618 1.039 1.67 1.143 3.857.062 5.725a1.588 1.588 0 0 1-.04.07c-.574.993-1.227 2.065-2.354 2.585.917 2.869 1.339 5.864.757 8.08a.966.966 0 0 1-.29.475c-.022.02-.048.037-.072.055a1.093 1.093 0 0 1-.171.108.973.973 0 0 1-.289.087c-.033.005-.065.011-.099.013a1.01 1.01 0 0 1-.298-.027.997.997 0 0 1-.713-1.217c.714-2.722-.505-7.779-2.837-11.762a2.4 2.4 0 0 0-.33-.426c-.053-.057-.114-.109-.173-.163a3.836 3.836 0 0 0-.247-.205 4.585 4.585 0 0 0-.25-.172c-.078-.049-.16-.092-.241-.137-.1-.053-.199-.108-.304-.155-.074-.032-.152-.057-.228-.086a4.648 4.648 0 0 0-.66-.198c-.082-.019-.163-.041-.245-.055-.122-.02-.245-.03-.368-.041a4.954 4.954 0 0 0-.243-.016l-.089-.001a4.155 4.155 0 0 0-.528.038 2.974 2.974 0 0 0-.294.051c-.096.023-.185.059-.275.092-.089.032-.179.059-.264.102-.056.029-.098.067-.148.1a1.633 1.633 0 0 0-.289.224c-.038.039-.066.083-.098.125a1.518 1.518 0 0 0-.214.365c-.331.802-.083 1.895.271 2.806a23.91 23.91 0 0 1 1.606 8.359c.001.102-.027.195-.055.289.219.453.426.97.65 1.532.857 2.148 1.924 4.821 4.536 6.327l3.972 2.301c.459.265.907.5 1.345.716.145.072.284.131.427.197.289.136.577.268.857.383.162.066.318.124.476.184.252.096.502.188.746.269a17.844 17.844 0 0 0 1.162.34c.147.037.293.074.437.106.229.051.452.093.672.131.127.022.257.047.381.065.242.036.474.06.703.082.092.008.188.021.277.028.307.022.604.034.888.034l.015-.001c.33 0 .643-.015.941-.04.091-.008.172-.021.261-.03.201-.022.4-.044.585-.075.102-.016.195-.036.292-.055.157-.031.311-.061.454-.096.095-.023.183-.047.272-.071a9.52 9.52 0 0 0 .606-.187 7.478 7.478 0 0 0 .748-.303l.132-.062a4.72 4.72 0 0 0 .199-.105c.025-.014.054-.028.075-.041.071-.04.127-.074.161-.096.043-.038.074-.085.124-.115a108.758 108.758 0 0 0 3.667-2.383c.103-.07.216-.112.33-.14.034-.008.068-.01.102-.015.093-.012.186-.015.277-.002.019.003.038.003.056.007.109.022.212.065.309.122.02.012.039.026.059.04a1 1 0 0 1 .255.248.994.994 0 0 1-.261 1.385c-.014.009-1.073.732-2.388 1.578l2.922 1.684c.213.123.436.208.663.273.068.02.136.032.204.046.167.036.332.058.5.065.042.002.084.016.126.016.028 0 .055-.01.084-.011.218-.006.433-.03.644-.083.014-.003.029-.003.043-.007.223-.059.436-.15.64-.259.059-.031.113-.069.17-.104.148-.091.287-.196.419-.314.052-.047.104-.091.153-.141.166-.172.321-.359.446-.575l11.482-19.853c.73-1.262-.308-2.469-1.412-3.115zm-32.913-36.842l-15.978 5.145 4.739 4.002c-.082.126-.171.25-.246.38l-.061.109a9.332 9.332 0 0 0-.47.972c-.187.017-.357.04-.508.065l-6.116-5.165a.995.995 0 0 1 .338-1.71l13.893-4.473-14.365-2.586a9.01 9.01 0 0 0 2.541-2.491c.843-1.243 1.343-2.695 1.489-4.23l5.197-5.737-5.461 1.96-.302-2.011 8.841-3.173c.427-.152.912.003 1.167.384a.995.995 0 0 1-.089 1.223l-11.26 12.432 16.522 2.974a.998.998 0 0 1 .129 1.93zM84.585 78.678l-.025.076a9.737 9.737 0 0 0-.912.238c-.09.029-.176.069-.266.099l-1.519-4.219a.995.995 0 0 1 1.149-1.312l4.436.952c-.203.178-.383.347-.518.482a5.48 5.48 0 0 0-.479.473 9.78 9.78 0 0 0-.593.742l-1.508-.323.647 1.797a9.69 9.69 0 0 0-.412.995zm1.564-62.622c-.007 3.192-.275 5.465-3.388 7.654l-.855.704 1.236 6.328 2.88 19.119c.214 1.425-.064 2.794-.784 3.855-.887 1.309-2.25 2.092-3.645 2.092-1.236 0-3.451-.619-4.411-4.82l-1.983-11.882-2.038 12.881c-.406 2.394-2.098 4.817-4.548 4.817-1.38 0-2.712-.79-3.564-2.115-.704-1.097-.946-2.493-.679-3.931l2.281-12.297c-.134.062-.278.099-.417.147-.106.036-.208.083-.317.112-.179.046-.365.068-.55.092-.093.012-.183.036-.278.042a2.164 2.164 0 0 1-.161.005c-.152 0-.305-.011-.458-.023-.079-.006-.157.001-.236-.009a4.403 4.403 0 0 1-.852-.2h-.001l-.006-.002-.087-.03-.077-.026a4.34 4.34 0 0 1-.725-.332c-.073-.04-.139-.089-.208-.133a4.213 4.213 0 0 1-1.025-.909c-.047-.057-.097-.11-.14-.169-.159-.215-.3-.44-.418-.678-.001-.004-.004-.007-.006-.01-.008-.017-.011-.035-.019-.052a4.437 4.437 0 0 1-.251-.671c-.023-.079-.04-.159-.058-.238a4.4 4.4 0 0 1-.087-.536c-.009-.088-.02-.176-.023-.265-.002-.043-.011-.086-.012-.129-.059.02-.121.028-.181.045a4.592 4.592 0 0 1-.803.157c-.104.011-.207.022-.312.026l-.108.001c-.141 0-.282-.008-.424-.021-.093-.008-.186-.009-.28-.023a4.469 4.469 0 0 1-.796-.189 4.5 4.5 0 0 1-.796-.364c-.106-.061-.196-.142-.296-.211-.134-.094-.276-.181-.398-.288-.11-.096-.203-.212-.304-.319-.092-.099-.193-.191-.276-.298-.096-.123-.172-.262-.256-.395-.066-.107-.14-.208-.197-.321-.014-.028-.035-.051-.049-.08-.072-.145-.113-.299-.168-.449-.029-.081-.066-.157-.09-.24a4.364 4.364 0 0 1-.138-.665c-.007-.05-.019-.097-.024-.147a4.409 4.409 0 0 1-.013-.699c.003-.056.001-.111.006-.168.018-.203.057-.403.104-.604.016-.071.018-.143.037-.215-.282-1.123-1.276-5.349-1.276-9.05 0-6.957.084-8.358 2.989-12.279l.011-3.689c.014-2.226 1.738-3.97 3.924-3.97h18.052a3.985 3.985 0 0 1 3.983 3.977l-.001 3.552c1.054.99 3.997 4.138 3.997 8.419 0 .04-.003.079-.007.116zM66.333 51.12c-.173.938-.032 1.824.397 2.493.49.761 1.176 1.198 1.883 1.198 1.263 0 2.322-1.638 2.577-3.146l2.996-18.937a.997.997 0 0 1 .982-.841h.004c.488 0 .905.352.985.833l2.984 17.882c.335 1.465 1.033 3.212 2.452 3.212.731 0 1.476-.454 1.991-1.215.438-.646.603-1.513.463-2.443l-2.872-19.075-1.046-5.356c-2.576 1.959-5.246 3.95-6.524 4.807-1.28.857-2.361 1.224-3.249 1.322-.006.023-.002.046-.01.069l-.978 2.838-3.035 16.359zm-3.849-15.656c.141.288.333.539.564.745.041.037.091.065.135.099.079.061.156.125.242.175.106.062.222.111.34.157.033.013.062.032.095.043l.005.001.063.023.1.034c.149.051.299.083.449.104.033.005.066.005.099.008a2.534 2.534 0 0 0 .349.01l.109-.008c.115-.011.228-.03.34-.057.03-.008.06-.013.09-.022.278-.078.54-.206.773-.376l.079-.065a2.56 2.56 0 0 0 .331-.322 2.27 2.27 0 0 0 .179-.243c.026-.039.053-.077.077-.119.065-.115.122-.237.169-.365.004-.013.011-.024.015-.036l.318-.923.051-.147v-.001l.741-2.147c-.642-.493-1.154-1.189-1.502-1.963-.595-1.067-.706-2.448-.216-3.736l.008-.017c.531-1.321 1.79-3.253 3.505-5.389a2.252 2.252 0 0 0-.45-.21l-.16-.057a2.412 2.412 0 0 0-3.06 1.49l-3.276 9.51-.002.004-.677 1.965c-.053.154-.089.31-.109.466-.013.092-.009.184-.01.276-.001.064-.01.127-.006.19.021.309.101.615.242.903zm-5.927-4.171c.074.15.16.291.259.421.003.003.007.006.009.01.095.123.2.237.315.34.069.061.149.111.226.165.056.04.107.086.166.121.141.083.293.153.453.208.147.05.296.083.446.105.044.006.087.007.131.011.079.007.158.011.237.011l.065-.001a2.34 2.34 0 0 0 .343-.039c.059-.01.119-.014.178-.029a2.488 2.488 0 0 0 1.568-1.158c.007-.013.011-.028.018-.041.072-.128.136-.261.185-.402l3.277-9.513.295-.857a2.493 2.493 0 0 0-3.452-3.047 2.47 2.47 0 0 0-1.267 1.425l-3.573 10.368a2.46 2.46 0 0 0-.113.484c-.011.08-.006.16-.009.24-.003.081-.012.163-.007.244.021.319.105.636.25.934zM80.522 8.732a1 1 0 0 1-.358-.766l-.001-3.997a1.987 1.987 0 0 0-1.986-1.983H60.125c-1.074 0-1.92.874-1.927 1.985l-.012 3.842a.997.997 0 0 1-.188.751c-2.722 3.623-2.8 4.374-2.8 11.366 0 1.783.257 3.737.542 5.354l2.38-6.909a4.458 4.458 0 0 1 2.28-2.568 4.496 4.496 0 0 1 1.973-.459c.49 0 .981.082 1.457.245 1.559.535 2.617 1.852 2.924 3.359a4.415 4.415 0 0 1 1.85-.414c.475 0 .958.077 1.433.24l.159.055a4.354 4.354 0 0 1 1.61 1.003c2.179-1.944 4.462-3.561 5.78-4.127a1 1 0 0 1 1.312.522.998.998 0 0 1-.523 1.31c-2.355 1.01-8.727 6.344-10.014 9.471-.007.015-.016.033-.022.049a2.527 2.527 0 0 0-.122.537c-.048.498.058 1.059.275 1.574.095.153.201.298.336.405.272.216.616.322 1.018.322.726 0 1.639-.346 2.646-1.022 1.578-1.058 5.666-4.138 9.027-6.729l.003-.002.023-.018.001-.001c.012-.009.024-.019.037-.027 2.336-1.632 2.569-3.058 2.569-6.16 0-.037.002-.073.006-.109-.061-4.062-3.488-6.976-3.636-7.099zm-26.62 28.367l.028.019c.134.102.335.253.604.409.474.275.98.506 1.502.686.095.032.199.046.295.074l5.388 4.864-.427 2.303-8.737-7.888 4.938 13.714c.123.34.051.72-.187.992a.989.989 0 0 1-.962.319l-14.271-3.06 11.145 9.41a.997.997 0 0 1-.339 1.71l-13.893 4.474 14.366 2.587a.998.998 0 0 1 .563 1.649l-3.01 3.324a8.493 8.493 0 0 0-1.676-1.123l2-2.207-16.523-2.976a.997.997 0 0 1-.129-1.93l15.978-5.145-12.818-10.823a.997.997 0 0 1 .855-1.735l16.414 3.52-5.679-15.773a.995.995 0 0 1 .384-1.165 1 1 0 0 1 1.225.089l.036.032c.052.137.117.295.202.467.048.099.109.21.173.316.098.177.191.319.252.413l.055.087c.091.15.242.402.459.679.196.252.379.438.488.549l.052.055c.112.126.3.337.563.567.275.24.532.413.686.517zM27.85 84.016l15.285-8.808a4.494 4.494 0 0 1 6.136 1.638c.462.799.649 1.682.592 2.54l.223-.129a4.466 4.466 0 0 1 3.407-.452 4.46 4.46 0 0 1 2.731 2.09 4.49 4.49 0 0 1-.444 5.124 4.467 4.467 0 0 1 2.209 1.915 4.487 4.487 0 0 1-1.643 6.13l-6.275 3.617c.77.378 1.44.98 1.901 1.777a4.487 4.487 0 0 1-1.643 6.13l-19.435 11.205c-5.083 2.942-6.58 3.809-9.12 3.809-.847 0-1.81-.097-3.061-.245l-3.186 1.837a3.984 3.984 0 0 1-1.97.52 4.005 4.005 0 0 1-3.472-1.992l-8.992-15.547a3.975 3.975 0 0 1 1.46-5.427l2.941-1.695c-.026-2.061.498-8.348 7.407-12.33 3.253-1.875 8.198-6.641 9.697-9.974 1.111-2.472 2.608-2.989 3.664-2.989.48 0 .868.107 1.089.185 2.173.771 3.667 3.588 3.076 5.792-.456 1.7-1.423 3.574-2.577 5.279zm-1.168-9.193a1.205 1.205 0 0 0-.398-.071l-.015-.003c-.108 0-.213.017-.314.046-.023.007-.044.02-.066.028a1.38 1.38 0 0 0-.241.111c-.036.021-.069.048-.104.072a1.952 1.952 0 0 0-.283.242 2.571 2.571 0 0 0-.252.293 4.15 4.15 0 0 0-.14.199c-.028.042-.056.083-.083.126a5.554 5.554 0 0 0-.135.237c-.02.037-.042.073-.061.11a6.667 6.667 0 0 0-.171.352c-1.812 4.032-7.348 9.057-10.52 10.885-6.474 3.731-6.463 9.726-6.399 10.862l1.357 2.346a.995.995 0 0 1-.366 1.361.975.975 0 0 1-.336.113 1.008 1.008 0 0 1-.42-.013l-.009-.004a.991.991 0 0 1-.365-.195 1.013 1.013 0 0 1-.234-.265l-.972-1.681-2.603 1.5a1.981 1.981 0 0 0-.73 2.704l8.992 15.547c.083.144.186.269.298.384.032.033.067.063.102.094.088.079.181.149.281.21.037.023.073.048.111.068.137.073.279.133.428.173.015.004.03.004.045.008.136.032.275.049.415.053.02.001.039.008.059.008.028 0 .055-.01.083-.011.109-.004.218-.019.326-.041.046-.01.091-.017.136-.03.149-.043.296-.097.437-.177l2.603-1.501-.497-.859a.994.994 0 0 1 .365-1.361.975.975 0 0 1 .418-.123.982.982 0 0 1 .338.023l.01.004a.974.974 0 0 1 .364.196c.09.074.173.158.234.265l.747 1.29c.258.031.501.059.732.084.079.009.149.014.225.022.147.015.297.031.434.043.072.007.136.01.206.015.131.01.265.021.389.027.08.004.153.004.23.007.104.003.212.008.312.008h.007l.038-.001a8.42 8.42 0 0 0 .427-.014l.139-.011a5.98 5.98 0 0 0 .464-.054 6.41 6.41 0 0 0 .444-.084l.036-.009a7.36 7.36 0 0 0 .42-.115l.147-.048c.114-.037.23-.078.348-.123.05-.018.1-.036.15-.056.165-.065.334-.136.511-.215l.04-.019c.168-.076.344-.16.526-.25l.194-.097c.145-.074.297-.152.454-.235l.2-.105a54.969 54.969 0 0 0 1.499-.831l.284-.162.659-.378.274-.159c.314-.18.639-.368.987-.57l19.438-11.207a2.494 2.494 0 0 0 .912-3.407 2.52 2.52 0 0 0-.491-.59 2.4 2.4 0 0 0-.365-.274c-.039-.024-.075-.052-.115-.073a2.541 2.541 0 0 0-.528-.214c-.039-.011-.078-.014-.118-.023a2.444 2.444 0 0 0-.459-.059c-.031-.001-.06-.012-.09-.012-.028 0-.057.009-.085.01a2.45 2.45 0 0 0-.36.041c-.056.01-.111.016-.166.03a2.464 2.464 0 0 0-.51.186l-10.929 6.299a1.022 1.022 0 0 1-.335.113c-.028.004-.055.008-.083.01a1.007 1.007 0 0 1-.338-.023l-.01-.004a.974.974 0 0 1-.364-.196.964.964 0 0 1-.234-.265.994.994 0 0 1 .365-1.361l10.807-6.233c.054-.032.109-.062.164-.091l9.349-5.388a2.494 2.494 0 0 0 .912-3.407 2.454 2.454 0 0 0-.491-.59 2.468 2.468 0 0 0-.365-.274c-.039-.024-.075-.052-.116-.073a2.533 2.533 0 0 0-.527-.214c-.039-.011-.079-.014-.118-.023a2.444 2.444 0 0 0-.459-.059c-.03-.002-.06-.012-.09-.012-.029 0-.057.009-.085.01-.121.004-.24.02-.36.041-.055.01-.111.016-.167.03a2.436 2.436 0 0 0-.509.186L34.261 98.736a.97.97 0 0 1-.335.113c-.027.005-.055.008-.082.011a1.015 1.015 0 0 1-.339-.024c-.003-.001-.005-.003-.008-.003a1.024 1.024 0 0 1-.365-.197.95.95 0 0 1-.234-.265.994.994 0 0 1 .365-1.361l18.588-10.718c.055-.032.11-.062.165-.091l1.567-.902a2.494 2.494 0 0 0-.606-4.569 2.495 2.495 0 0 0-.58-.076c-.022-.001-.043-.008-.064-.008-.036 0-.071.012-.107.014a2.448 2.448 0 0 0-.427.056c-.057.013-.112.023-.167.04a2.418 2.418 0 0 0-.545.227L31.632 92.196a.995.995 0 0 1-.336.112 1.007 1.007 0 0 1-.42-.012l-.01-.004a1.023 1.023 0 0 1-.364-.196.979.979 0 0 1-.234-.265.996.996 0 0 1 .365-1.362l15.996-9.219a2.493 2.493 0 0 0 .912-3.407 2.468 2.468 0 0 0-.37-.478c-.041-.042-.085-.079-.128-.118a2.43 2.43 0 0 0-.348-.261c-.047-.029-.092-.06-.142-.086a2.462 2.462 0 0 0-.533-.216c-.01-.003-.021-.003-.032-.005a2.505 2.505 0 0 0-.54-.07c-.023-.001-.046-.009-.069-.009-.035 0-.07.012-.105.014-.14.006-.278.024-.417.054-.057.012-.114.022-.171.038a2.512 2.512 0 0 0-.553.228L22.957 89.137c-.003.002-.005.005-.008.006-1.406.811-2.137 2.285-1.596 3.22a.996.996 0 0 1-.366 1.362 1.012 1.012 0 0 1-.336.113c-.027.004-.054.008-.082.01a1.01 1.01 0 0 1-.338-.023l-.009-.004a1.016 1.016 0 0 1-.296-.144c-.024-.016-.046-.034-.069-.052a1.013 1.013 0 0 1-.234-.265c-1.117-1.932-.099-4.535 2.315-5.934.005-.003.007-.008.012-.01 2.128-1.227 5.637-5.801 6.549-9.195.315-1.175-.655-2.985-1.817-3.398zm29.777.919l1.402-.504c.341-.12.722-.051.995.188a.995.995 0 0 1 .319.96l-.295 1.372a8.37 8.37 0 0 0-2.421-2.016zm9.84 3.413a.997.997 0 0 1 .95.691l4.481 13.867 2.592-14.34a.998.998 0 0 1 1.652-.562l3.33 3.006a9.303 9.303 0 0 0-1.045 1.455l-.026.045c-.028.049-.05.102-.077.151l-2.188-1.975-2.981 16.493a.999.999 0 0 1-1.933.129l-5.153-15.949-3.993 4.712a8.482 8.482 0 0 0-.461-.938 8.361 8.361 0 0 0-.613-.882l4.703-5.55a1 1 0 0 1 .762-.353z"/>
</svg>
