<svg xmlns="http://www.w3.org/2000/svg" width="120" height="20">
    <path fill="#FFF" fill-rule="evenodd" d="M117.766 15.051c-1.196.963-2.521 1.382-4.398 1.382h-3.478V4.313h3.497c3.883 0 6.606 2.489 6.606 6.05 0 1.818-.828 3.525-2.227 4.688zm-1.564-7.704c-.828-.708-1.711-.981-3.276-.981h-.644v8.014h.644c1.546 0 2.54-.273 3.276-.963.828-.746 1.325-1.873 1.325-3.054 0-1.163-.497-2.289-1.325-3.016zm-14.552 6.651h-5.006l-1.122 2.562h-2.539l5.318-12.374h1.803l5.172 12.374h-2.577l-1.049-2.562zm-2.466-6.269l-1.785 4.361h3.515l-1.73-4.361zm-13.302 8.704l-3.312-4.87h-.295v4.87h-2.392V4.313h3.552c1.343 0 2.429.308 3.129.872.754.599 1.214 1.635 1.214 2.725 0 1.254-.534 2.326-1.435 2.908-.442.273-.7.381-1.362.508l3.864 5.107h-2.963zm-.57-8.378c0-1.199-.792-1.816-2.319-1.816h-.718v3.652h.681c1.528 0 2.356-.636 2.356-1.836zm-20.55.2v8.196H62.37V4.058h1.656l7.472 8.431V4.331h2.392v12.356h-1.656l-7.472-8.432zm-14.068 8.45c-3.699 0-6.552-2.743-6.552-6.305 0-3.58 2.871-6.36 6.589-6.36 3.644 0 6.533 2.798 6.533 6.341 0 3.544-2.889 6.324-6.57 6.324zm0-10.503c-2.245 0-4.086 1.872-4.086 4.161 0 2.308 1.841 4.198 4.086 4.198 2.263 0 4.104-1.872 4.104-4.198 0-2.308-1.841-4.161-4.104-4.161zM37.695 16.433l-4.381-5.434-.276.273v5.161h-2.392V4.313h2.392v5.124l4.509-5.124h3.018l-5.19 5.596 5.467 6.524h-3.147zM7.074 12.877L-.013 5.87V.857l9.622 9.514 9.626 9.518h-5.07l-7.091-7.012zM7.105.857h10.582l-5.291 5.224L7.105.857zm-.064 19.032H-.013v-6.966l3.527 3.483 3.527 3.483z"/>
</svg>
