<svg xmlns="http://www.w3.org/2000/svg" width="41" height="60">
    <path fill="#FFF" fill-rule="evenodd" d="M39.689 26.585C37.55 29.557 35.891 36.236 35.891 40c0 7.99-5.183 11.599-6.981 12.609v3.402c0 2.199-1.782 3.989-3.972 3.989H6.987c-2.186 0-3.976-1.787-3.991-3.982v-3.685C-.012 48.292-.011 47.826.004 39.978L.006 17.5c0-2.481 2.014-4.5 4.489-4.5.92 0 1.776.279 2.488.758V6.5c0-2.481 2.014-4.5 4.489-4.5 1.041 0 1.998.358 2.761.955A4.497 4.497 0 0 1 18.449 0c1.199 0 2.326.469 3.173 1.32a4.473 4.473 0 0 1 1.308 3.182v.259A4.453 4.453 0 0 1 25.426 4c2.471 0 4.481 2.019 4.481 4.5l.001 17.676c.9-1.857 2.041-3.636 3.285-4.883 1.614-1.619 4.796-1.735 6.55-.239.57.487 2.252 2.325-.054 5.531zm-1.238-4.008c-.937-.802-2.988-.732-3.849.13-2.484 2.491-4.693 7.831-4.693 10.293 0 .006-.003.011-.003.017C29.898 35.766 28.114 38 25.922 38a.998.998 0 0 1-.997-1c0-.553.446-1 .997-1 1.08 0 1.991-1.374 1.991-3l.002-.01-.002-24.49c0-1.379-1.116-2.5-2.487-2.5a2.5 2.5 0 0 0-2.496 2.5v18.481c0 .006.004.012.004.019 0 .521.127.877.215 1.024a.998.998 0 0 1 .782.976c0 .553-.446 1-.997 1-.373 0-.707-.143-.997-.38-.289.237-.623.38-.996.38a.998.998 0 0 1-.997-1c0-.478.334-.878.781-.976.087-.146.212-.498.214-1.012a.05.05 0 0 1-.002-.012V4.5a2.483 2.483 0 0 0-.725-1.767A2.473 2.473 0 0 0 18.449 2a2.5 2.5 0 0 0-2.496 2.5v1.812c.003.062.004.125.004.188L15.953 28c0 .521.129.877.217 1.023A1 1 0 0 1 15.957 31c-.373 0-.709-.143-.999-.38-.288.237-.622.38-.994.38a.998.998 0 0 1-.997-1c0-.478.333-.877.78-.976.087-.147.213-.503.213-1.024V6.359A2.499 2.499 0 0 0 11.472 4a2.5 2.5 0 0 0-2.495 2.5v10.812c.003.062.003.125.003.188L8.977 30c0 .522.128.877.217 1.022.447.099.783.5.783.978 0 .553-.446 1-.997 1-.373 0-.708-.143-.998-.38-.289.237-.623.38-.995.38a1 1 0 1 1-.217-1.977c.088-.146.213-.501.213-1.023V17.359A2.499 2.499 0 0 0 4.495 15 2.5 2.5 0 0 0 2 17.5l-.003 22.482C1.983 47.354 1.99 47.642 4.492 51h1.49c.551 0 .996.447.996 1 0 .553-.445 1-.996 1H4.99v3.011A2.006 2.006 0 0 0 6.987 58h17.951a1.987 1.987 0 0 0 1.979-1.989V53h-1.942a.998.998 0 0 1-.997-1c0-.553.446-1 .997-1h2.709c1.016-.515 6.213-3.513 6.213-11 0-3.669 1.589-10.992 4.176-14.586.642-.892 1.229-2.11.378-2.837z"/>
</svg>
