<svg xmlns="http://www.w3.org/2000/svg" width="43" height="60">
    <path fill="#FFF" fill-rule="evenodd" d="M36.991 50.58V55c0 2.757-2.242 5-4.998 5H8.998c-2.336 0-3.981-1.966-3.999-4.78v-4.885a70.682 70.682 0 0 0-1.348-1.706C.757 45.042 0 43.687 0 33.6V12.131c0-.133.026-.261.074-.378 0-.006.003-.012.004-.018.045-.32.119-.628.217-.928l.014-.048c.102-.302.228-.589.378-.866l.017-.031a5.552 5.552 0 0 1 1.182-1.474l.062-.052c.222-.189.452-.364.702-.517.052-.032.108-.057.161-.087.226-.128.454-.25.698-.345.122-.049.251-.078.377-.117.19-.059.375-.127.574-.165A5.322 5.322 0 0 1 5.499 7l.012.001a5.441 5.441 0 0 1 3.491 1.276A5.507 5.507 0 0 1 14.497 3l.014.001a5.477 5.477 0 0 1 3.603 1.36c.05-.235.129-.458.207-.681.024-.067.036-.139.062-.204.094-.236.213-.458.337-.676.029-.051.048-.107.079-.156.134-.22.291-.423.453-.621.033-.04.058-.086.092-.125.168-.194.357-.369.55-.537.039-.034.071-.074.11-.107.196-.161.409-.3.626-.433.046-.029.087-.066.134-.093.219-.126.452-.226.688-.321.054-.022.103-.054.157-.074.247-.09.507-.153.769-.208.05-.01.096-.03.146-.039.315-.056.64-.086.97-.086h.003c.344 0 .677.041 1.003.102.102.019.198.046.297.071.228.056.45.123.665.207.101.039.2.077.298.122.226.103.443.222.652.354.064.041.132.074.194.117.262.18.506.383.733.605.057.056.106.12.161.179.164.175.318.359.459.555.063.089.121.18.18.273.12.19.226.388.322.593.044.093.091.183.129.278.017.041.04.077.055.118A5.482 5.482 0 0 1 32.492 2a5.506 5.506 0 0 1 5.499 5.5V22c0 .35.777 1.334 1.344 2.053 1.542 1.955 3.655 4.633 3.655 8.345l.01 4.6c0 8.942-4.393 12.556-6.009 13.582zM2 12.5v8C2 22.43 3.57 24 5.499 24a3.504 3.504 0 0 0 3.499-3.5v-8c0-.371-.073-.722-.181-1.057-.003-.01-.011-.018-.014-.028a3.525 3.525 0 0 0-1.599-1.952c-.068-.039-.136-.079-.207-.113a3.51 3.51 0 0 0-.63-.228c-.079-.021-.157-.043-.238-.058A3.42 3.42 0 0 0 5.501 9h-.002a3.342 3.342 0 0 0-1.221.232c-.019.007-.04.011-.059.018a3.532 3.532 0 0 0-2.185 2.961c-.002.021-.008.04-.011.061-.005.077-.023.15-.023.228zm21.607 5.192c.016-.041.036-.081.053-.122a6.312 6.312 0 0 1 .519-.966c.039-.058.069-.122.11-.179.077-.108.166-.193.248-.292.087-.105.169-.212.262-.308.151-.155.313-.286.477-.413.067-.052.123-.119.193-.167.151-.104.392-.244.697-.367.047-.019.093-.038.14-.055.168-.06.355-.11.556-.147.045-.009.087-.029.132-.035V7.502 5.5c0-1.93-1.57-3.5-3.499-3.5a3.504 3.504 0 0 0-3.499 3.5v17c0 1.93 1.57 3.5 3.499 3.5.938-.014 1.593-.012 2.075-.182-.551-.778-1.035-1.668-1.447-2.425a34.073 34.073 0 0 0-.401-.727 4.456 4.456 0 0 1-.357-.844c-.021-.067-.036-.135-.054-.203a5.264 5.264 0 0 1-.152-.789c-.005-.043-.011-.085-.014-.128a6.435 6.435 0 0 1 .462-3.01zm-5.611-9.19V8.5c0-1.93-1.57-3.5-3.499-3.5a3.504 3.504 0 0 0-3.499 3.5v13c0 1.93 1.57 3.5 3.499 3.5a3.504 3.504 0 0 0 3.499-3.5V8.502zM32.492 4a3.503 3.503 0 0 0-3.498 3.495v7.424c.797.332 1.675.969 2.588 2.102a21.928 21.928 0 0 0 4.41 4.133V7.5c0-1.93-1.57-3.5-3.5-3.5zm8.498 28.4c0-3.02-1.788-5.287-3.225-7.108a24.058 24.058 0 0 1-1.005-1.332c-.095-.023-.191-.045-.279-.098a23.99 23.99 0 0 1-6.456-5.586c-.615-.763-1.441-1.527-2.303-1.643a1.54 1.54 0 0 0-.424.003c-.052.007-.105.01-.157.023-.122.03-.232.082-.34.138-.054.027-.107.044-.161.078-.08.052-.148.116-.22.178-.075.061-.15.121-.219.192-.07.076-.132.153-.192.23a3.738 3.738 0 0 0-.34.517 4.002 4.002 0 0 0-.107.218 4.666 4.666 0 0 0-.149.34c-.029.078-.05.158-.075.237-.07.224-.123.45-.159.678-.013.079-.03.158-.039.237-.012.116-.014.229-.017.343a4.239 4.239 0 0 0-.002.276 3.762 3.762 0 0 0 .078.621c.017.078.033.157.055.232.054.177.118.347.205.5 2.293 4.02 6.075 7.615 8.798 8.361A1.002 1.002 0 0 1 33.993 32a1.06 1.06 0 0 1-.265-.035c-2.215-.607-4.602-2.479-6.635-4.713-1.017.719-2.277.748-3.428.748h-.081a5.551 5.551 0 0 1-4.926-2.945C17.649 26.235 16.168 27 14.497 27c-2.104 0-3.915-1.202-4.839-2.943C8.649 25.236 7.169 26 5.499 26c-1.336 0-2.546-.498-3.5-1.294V33.6c0 9.797.68 10.639 3.208 13.772.384.476.818 1.021 1.283 1.628h2.508a1 1 0 1 1 0 2h-2v4.213c.009 1.282.538 2.787 2 2.787h22.995a3.003 3.003 0 0 0 2.999-3v-3.379a114.222 114.222 0 0 1-2.567 1.279 1 1 0 0 1-.864-1.802c.02-.01 2.021-.971 3.905-1.986.052-.028.109-.031.163-.049.558-.289 5.372-3.042 5.372-12.063l-.011-4.6z"/>
</svg>
