<svg xmlns="http://www.w3.org/2000/svg" width="33" height="57">
    <path fill="#FFF" fill-rule="evenodd" d="M32.911 40.883c.004.038.006.077.006.117 0 4.295-2.939 7.453-3.992 8.446l.001 3.565A3.99 3.99 0 0 1 24.946 57H6.911c-2.184 0-3.906-1.749-3.921-3.982l-.011-3.702C.077 45.382-.007 43.977-.007 36.996c0-3.713.994-7.953 1.275-9.08-.019-.072-.021-.144-.037-.216a4.337 4.337 0 0 1-.104-.606c-.005-.056-.003-.111-.006-.167a4.447 4.447 0 0 1 .013-.702c.005-.05.017-.098.024-.148.031-.225.072-.447.138-.667.024-.082.061-.16.09-.241.054-.15.096-.304.167-.45.014-.029.035-.052.05-.081.057-.112.131-.214.197-.321.083-.134.159-.273.255-.396.083-.108.184-.2.277-.3.1-.107.193-.223.303-.32.122-.107.263-.194.398-.289.099-.069.19-.15.295-.211.248-.145.514-.268.796-.365.261-.09.527-.15.795-.19.093-.014.186-.016.279-.024.178-.015.355-.025.532-.019.105.004.208.015.312.026a4.613 4.613 0 0 1 .802.157c.06.018.122.025.181.046.001-.044.01-.087.011-.13.004-.089.014-.177.023-.267a4.57 4.57 0 0 1 .087-.536c.019-.08.036-.16.059-.239.066-.232.148-.457.25-.674.008-.017.012-.035.02-.052l.006-.009a4.43 4.43 0 0 1 .416-.681c.044-.059.094-.113.141-.17a4.445 4.445 0 0 1 .586-.594c.138-.115.284-.219.437-.317.07-.045.136-.094.209-.134.228-.129.468-.245.724-.333l.081-.028.082-.029.007-.001.001-.001c.282-.096.566-.162.851-.2.078-.01.155-.003.233-.009.208-.016.416-.032.622-.018.094.006.184.03.277.042.185.024.37.046.55.093.109.028.21.075.316.112.139.048.283.085.417.147L11.152 6.066c-.266-1.442-.025-2.843.679-3.944C12.681.793 14.013 0 15.391 0c2.448 0 4.139 2.432 4.544 4.833l2.036 12.924 1.982-11.921C24.912 1.621 27.124 1 28.359 1c1.394 0 2.755.785 3.642 2.099.719 1.064.997 2.438.783 3.868l-2.877 19.181-1.235 6.35.854.706c3.11 2.196 3.378 4.477 3.385 7.679zM6.676 24.448l-.012-.004a2.5 2.5 0 0 0-.847-.225c-.045-.004-.088-.013-.132-.015a2.472 2.472 0 0 0-.912.122 2.564 2.564 0 0 0-.453.21c-.058.034-.108.08-.164.119-.077.054-.157.105-.227.167a2.5 2.5 0 0 0-.308.334l-.016.018a2.537 2.537 0 0 0-.509 1.359c-.005.082.005.165.008.248.002.079-.002.159.008.237.021.163.058.325.114.486l3.569 10.402a2.478 2.478 0 0 0 1.266 1.43c.6.293 1.276.335 1.903.121a2.505 2.505 0 0 0 1.546-3.178l-.295-.859v-.001l-3.274-9.544a2.457 2.457 0 0 0-.202-.442l-.001-.002a2.482 2.482 0 0 0-1.062-.983zm6.591 6.142l-.008-.018c-.489-1.292-.379-2.677.216-3.748.347-.776.859-1.475 1.5-1.969l-.739-2.155-.001-.001-.065-.189-.303-.884a2.406 2.406 0 0 0-.322-.606c-.028-.039-.056-.079-.086-.116a2.4 2.4 0 0 0-.459-.442c-.032-.023-.068-.041-.102-.062a2.39 2.39 0 0 0-.493-.246c-.045-.016-.088-.036-.133-.049a2.392 2.392 0 0 0-.615-.096c-.052-.002-.104.002-.157.004-.224.008-.45.038-.673.113l-.016.004-.099.034-.065.023h-.004c-.035.012-.065.032-.099.046a2.507 2.507 0 0 0-.336.155c-.087.052-.165.116-.245.178-.043.034-.091.061-.132.098a2.401 2.401 0 0 0-.563.747 2.42 2.42 0 0 0-.242.906c-.004.064.005.13.006.194.001.092-.003.183.009.274.021.156.057.312.11.467l.676 1.971.002.005 3.273 9.542a2.41 2.41 0 0 0 3.057 1.494l.16-.057c.159-.055.309-.125.45-.211-1.713-2.143-2.971-4.081-3.502-5.406zM30.811 6.67c.139-.933-.025-1.803-.462-2.45C29.833 3.456 29.09 3 28.359 3c-1.418 0-2.115 1.753-2.45 3.223l-2.981 17.941a1 1 0 0 1-.984.836h-.004a.998.998 0 0 1-.981-.844l-2.993-19C17.711 3.644 16.653 2 15.391 2c-.706 0-1.392.438-1.881 1.202-.429.671-.57 1.56-.397 2.501l3.032 16.413.978 2.848c.008.024.004.048.01.072.888.098 1.965.462 3.245 1.323 1.278.86 3.945 2.858 6.518 4.823l1.046-5.373L30.811 6.67zm-2.462 28.149l-.037-.027-.001-.001c-3.363-2.603-7.463-5.707-9.045-6.771-1.563-1.053-2.898-1.31-3.66-.703a1.555 1.555 0 0 0-.336.407c-.217.517-.323 1.079-.275 1.578.028.182.056.365.122.541l.021.047c1.285 3.137 7.653 8.489 10.006 9.504a1 1 0 0 1-.788 1.838c-1.322-.571-3.615-2.202-5.799-4.163-.463.451-.988.822-1.584 1.028l-.16.055a4.367 4.367 0 0 1-1.431.242 4.401 4.401 0 0 1-1.849-.417c-.306 1.513-1.363 2.834-2.921 3.371a4.455 4.455 0 0 1-1.455.246 4.48 4.48 0 0 1-1.972-.461 4.469 4.469 0 0 1-2.277-2.576L2.53 31.625c-.284 1.622-.542 3.582-.542 5.371 0 7.016.078 7.769 2.798 11.404.163.219.228.491.188.753l.011 3.855C4.993 54.123 5.838 55 6.911 55h18.035a1.99 1.99 0 0 0 1.985-1.989V49c0-.291.128-.574.358-.768.148-.124 3.572-3.047 3.632-7.123a1.305 1.305 0 0 1-.005-.109c0-3.112-.233-4.543-2.567-6.181z"/>
</svg>
